<svg width="177mm" height="177mm" version="1.1" viewBox="0 0 627 627" xmlns="http://www.w3.org/2000/svg">
  <defs>
    <clipPath id="b">
      <rect transform="matrix(.707 -.707 .707 .707 0 0)" x="472" y="543" width="100" height="50" fill="#0f0"/>
    </clipPath>
    <clipPath id="a">
      <rect transform="matrix(.707 -.707 .707 .707 0 0)" x="472" y="543" width="100" height="50" fill="#0f0"/>
    </clipPath>
  </defs>
  <g transform="translate(-208 -229)">
    <g fill="#fc0">
      <rect transform="matrix(-3.64 -3.77 1.1 -4.94 3154 3457)" x="717" y="-20.5" width="70.7" height="70.7" clip-path="url(#b)"/>
      <rect transform="matrix(-1.1 -4.94 3.64 -3.77 1386 4318)" x="717" y="-20.5" width="70.7" height="70.7" clip-path="url(#a)"/>
      <ellipse cx="522" cy="609" rx="260" ry="239"/>
    </g>
    <g>
      <ellipse cx="418" cy="539" rx="86.7" ry="79.7" fill="#00f"/>
      <ellipse id="righteye" cx="477" cy="539" rx="27" ry="24.8" fill="#fff"/>
      <ellipse cx="626" cy="539" rx="86.7" ry="79.7" fill="#00f"/>
      <ellipse id="lefteye" cx="685" cy="539" rx="27" ry="24.8" fill="#fff"/>
    </g>
    <path d="m421 698c183 34.8 199-46.4 199-46.4" fill="none" stroke="#000" stroke-width="4.25px"/>
  </g>
</svg>